<?xml version="1.0" encoding="UTF-8" standalone="no"?>
<!DOCTYPE svg PUBLIC "-//W3C//DTD SVG 1.1//EN" "http://www.w3.org/Graphics/SVG/1.1/DTD/svg11.dtd">
<!-- Generated by Microsoft Visio, SVG Export classes.svg Page-1 -->
<svg xmlns="http://www.w3.org/2000/svg" xmlns:xlink="http://www.w3.org/1999/xlink" xmlns:ev="http://www.w3.org/2001/xml-events"
		xmlns:v="http://schemas.microsoft.com/visio/2003/SVGExtensions/" width="11.6964in" height="6.20812in"
		viewBox="0 0 842.14 446.984" xml:space="preserve" color-interpolation-filters="sRGB" class="st11">
	<v:documentProperties v:langID="1033" v:metric="true" v:viewMarkup="false">
		<v:userDefs>
			<v:ud v:nameU="msvSubprocessMaster" v:prompt="" v:val="VT4(Rectangle)"/>
			<v:ud v:nameU="msvNoAutoConnect" v:val="VT0(1):26"/>
			<v:ud v:nameU="msvConvertTheme"/>
		</v:userDefs>
	</v:documentProperties>

	<style type="text/css">
	<![CDATA[
		.st1 {fill:#86f975;stroke:#000000;stroke-linecap:round;stroke-linejoin:round;stroke-width:0.25}
		.st2 {fill:#000000;font-family:Lato;font-size:0.833336em}
		.st3 {fill:#f2f2f2;stroke:#000000;stroke-linecap:round;stroke-linejoin:round;stroke-width:0.25}
		.st4 {marker-end:url(#mrkr5-56);stroke:#000000;stroke-linecap:round;stroke-linejoin:round;stroke-width:1}
		.st5 {fill:#000000;fill-opacity:1;stroke:#000000;stroke-opacity:1;stroke-width:0.28409090909091}
		.st6 {fill:#ffffff;stroke:none;stroke-linecap:butt;stroke-width:7.2}
		.st7 {marker-end:url(#mrkr5-73);stroke:#000000;stroke-linecap:round;stroke-linejoin:round;stroke-width:1}
		.st8 {fill:#ffffff;stroke:none;stroke-linecap:butt}
		.st9 {marker-end:url(#mrkr5-279);stroke:#404040;stroke-linecap:round;stroke-linejoin:round;stroke-width:1}
		.st10 {fill:#404040;fill-opacity:1;stroke:#404040;stroke-opacity:1;stroke-width:0.28409090909091}
		.st11 {fill:none;fill-rule:evenodd;font-size:12px;overflow:visible;stroke-linecap:square;stroke-miterlimit:3}
	]]>
	</style>

	<defs id="Patterns_And_Gradients">
		<linearGradient id="grad0-53" x1="0" y1="0" x2="1" y2="0" gradientTransform="rotate(90 0.5 0.5)">
			<stop offset="0" stop-color="#f0f0f0" stop-opacity="1"/>
			<stop offset="1" stop-color="#ffffff" stop-opacity="1"/>
		</linearGradient>
	</defs>
	<defs id="Markers">
		<g id="lend5">
			<path d="M 2 1 L 0 0 L 1.98117 -0.993387 C 1.67173 -0.364514 1.67301 0.372642 1.98465 1.00043 " style="stroke:none"/>
		</g>
		<marker id="mrkr5-56" class="st5" v:arrowType="5" v:arrowSize="2" v:setback="6.16" refX="-6.16" orient="auto"
				markerUnits="strokeWidth" overflow="visible">
			<use xlink:href="#lend5" transform="scale(-3.52,-3.52) "/>
		</marker>
		<marker id="mrkr5-73" class="st5" v:arrowType="5" v:arrowSize="2" v:setback="5.8" refX="-5.8" orient="auto"
				markerUnits="strokeWidth" overflow="visible">
			<use xlink:href="#lend5" transform="scale(-3.52,-3.52) "/>
		</marker>
		<marker id="mrkr5-279" class="st10" v:arrowType="5" v:arrowSize="2" v:setback="5.8" refX="-5.8" orient="auto"
				markerUnits="strokeWidth" overflow="visible">
			<use xlink:href="#lend5" transform="scale(-3.52,-3.52) "/>
		</marker>
	</defs>
	<g v:mID="0" v:index="1" v:groupContext="foregroundPage">
		<v:userDefs>
			<v:ud v:nameU="msvThemeColors" v:val="VT0(36):26"/>
			<v:ud v:nameU="msvThemeEffects" v:val="VT0(16):26"/>
			<v:ud v:nameU="msvThemeOrder" v:val="VT0(0):26"/>
		</v:userDefs>
		<title>Page-1</title>
		<v:pageProperties v:drawingScale="0.0393701" v:pageScale="0.0393701" v:drawingUnits="24" v:shadowOffsetX="8.50394"
				v:shadowOffsetY="-8.50394"/>
		<v:layer v:name="Connector" v:index="0"/>
		<g id="shape33-1" v:mID="33" v:groupContext="shape" transform="translate(450.562,-308.532)">
			<title>Ellipse.33</title>
			<desc>dmusic:Agent</desc>
			<v:userDefs>
				<v:ud v:nameU="visVersion" v:val="VT0(15):26"/>
				<v:ud v:nameU="msvThemeColors" v:val="VT0(36):26"/>
				<v:ud v:nameU="msvThemeEffects" v:val="VT0(16):26"/>
			</v:userDefs>
			<v:textBlock v:margins="rect(4,4,4,4)" v:tabSpace="42.5197"/>
			<v:textRect cx="49.6063" cy="425.869" width="86.82" height="36.9516"/>
			<path d="M0 425.87 A49.6063 21.1152 0 1 1 99.21 425.87 A49.6063 21.1152 0 1 1 0 425.87 Z" class="st1"/>
			<text x="19.66" y="428.87" class="st2" v:langID="2070"><v:paragraph v:horizAlign="1"/><v:tabList/>dmusic:Agent</text>		</g>
		<g id="shape32-4" v:mID="32" v:groupContext="shape" transform="translate(228.019,-234.831)">
			<title>Ellipse.32</title>
			<desc>dmusic:Artist</desc>
			<v:userDefs>
				<v:ud v:nameU="visVersion" v:val="VT0(15):26"/>
				<v:ud v:nameU="msvThemeColors" v:val="VT0(36):26"/>
				<v:ud v:nameU="msvThemeEffects" v:val="VT0(16):26"/>
			</v:userDefs>
			<v:textBlock v:margins="rect(4,4,4,4)" v:tabSpace="42.5197"/>
			<v:textRect cx="50.474" cy="425.869" width="88.33" height="36.9516"/>
			<path d="M0 425.87 A50.474 21.1152 0 0 1 100.95 425.87 A50.474 21.1152 0 1 1 0 425.87 Z" class="st1"/>
			<text x="21.15" y="428.87" class="st2" v:langID="2070"><v:paragraph v:horizAlign="1"/><v:tabList/>dmusic:Artist</text>		</g>
		<g id="shape31-7" v:mID="31" v:groupContext="shape" transform="translate(18.125,-324.411)">
			<title>Ellipse.31</title>
			<desc>dmusic:IndividualArtist</desc>
			<v:userDefs>
				<v:ud v:nameU="visVersion" v:val="VT0(15):26"/>
				<v:ud v:nameU="msvThemeColors" v:val="VT0(36):26"/>
				<v:ud v:nameU="msvThemeEffects" v:val="VT0(16):26"/>
			</v:userDefs>
			<v:textBlock v:margins="rect(4,4,4,4)" v:tabSpace="42.5197"/>
			<v:textRect cx="63.9386" cy="425.869" width="111.9" height="36.9516"/>
			<path d="M0 425.87 A63.9386 21.1152 0 0 1 127.88 425.87 A63.9386 21.1152 0 0 1 0 425.87 Z" class="st1"/>
			<text x="13" y="428.87" class="st2" v:langID="2070"><v:paragraph v:horizAlign="1"/><v:tabList/>dmusic:IndividualArtist</text>		</g>
		<g id="shape30-10" v:mID="30" v:groupContext="shape" transform="translate(25.0815,-234.831)">
			<title>Ellipse.30</title>
			<desc>dmusic:GroupArtist</desc>
			<v:userDefs>
				<v:ud v:nameU="visVersion" v:val="VT0(15):26"/>
				<v:ud v:nameU="msvThemeColors" v:val="VT0(36):26"/>
				<v:ud v:nameU="msvThemeEffects" v:val="VT0(16):26"/>
			</v:userDefs>
			<v:textBlock v:margins="rect(4,4,4,4)" v:tabSpace="42.5197"/>
			<v:textRect cx="56.9822" cy="425.869" width="99.72" height="36.9516"/>
			<path d="M0 425.87 A56.9822 21.1152 0 0 1 113.96 425.87 A56.9822 21.1152 0 1 1 0 425.87 Z" class="st1"/>
			<text x="13.66" y="428.87" class="st2" v:langID="2070"><v:paragraph v:horizAlign="1"/><v:tabList/>dmusic:GroupArtist</text>		</g>
		<g id="shape29-13" v:mID="29" v:groupContext="shape" transform="translate(229.754,-386.629)">
			<title>Ellipse.29</title>
			<desc>foaf:Person</desc>
			<v:userDefs>
				<v:ud v:nameU="visVersion" v:val="VT0(15):26"/>
				<v:ud v:nameU="msvThemeColors" v:val="VT0(36):26"/>
				<v:ud v:nameU="msvThemeEffects" v:val="VT0(16):26"/>
			</v:userDefs>
			<v:textBlock v:margins="rect(4,4,4,4)" v:tabSpace="42.5197"/>
			<v:textRect cx="50.474" cy="425.869" width="88.33" height="36.9516"/>
			<path d="M0 425.87 A50.474 21.1152 0 0 1 100.95 425.87 A50.474 21.1152 0 1 1 0 425.87 Z" class="st3"/>
			<text x="25.11" y="428.87" class="st2" v:langID="2070"><v:paragraph v:horizAlign="1"/><v:tabList/>foaf:Person</text>		</g>
		<g id="shape28-16" v:mID="28" v:groupContext="shape" transform="translate(229.754,-18.125)">
			<title>Ellipse.28</title>
			<desc>event:Event</desc>
			<v:userDefs>
				<v:ud v:nameU="visVersion" v:val="VT0(15):26"/>
				<v:ud v:nameU="msvThemeColors" v:val="VT0(36):26"/>
				<v:ud v:nameU="msvThemeEffects" v:val="VT0(16):26"/>
			</v:userDefs>
			<v:textBlock v:margins="rect(4,4,4,4)" v:tabSpace="42.5197"/>
			<v:textRect cx="50.474" cy="425.869" width="88.33" height="36.9516"/>
			<path d="M0 425.87 A50.474 21.1152 0 0 1 100.95 425.87 A50.474 21.1152 0 1 1 0 425.87 Z" class="st3"/>
			<text x="24.04" y="428.87" class="st2" v:langID="2070"><v:paragraph v:horizAlign="1"/><v:tabList/>event:Event</text>		</g>
		<g id="shape27-19" v:mID="27" v:groupContext="shape" transform="translate(29.5706,-18.125)">
			<title>Ellipse.27</title>
			<desc>dmusic:Concert</desc>
			<v:userDefs>
				<v:ud v:nameU="visVersion" v:val="VT0(15):26"/>
				<v:ud v:nameU="msvThemeColors" v:val="VT0(36):26"/>
				<v:ud v:nameU="msvThemeEffects" v:val="VT0(16):26"/>
			</v:userDefs>
			<v:textBlock v:margins="rect(4,4,4,4)" v:tabSpace="42.5197"/>
			<v:textRect cx="50.474" cy="425.869" width="88.33" height="36.9516"/>
			<path d="M0 425.87 A50.474 21.1152 0 0 1 100.95 425.87 A50.474 21.1152 0 1 1 0 425.87 Z" class="st1"/>
			<text x="15.93" y="428.87" class="st2" v:langID="2070"><v:paragraph v:horizAlign="1"/><v:tabList/>dmusic:Concert</text>		</g>
		<g id="shape26-22" v:mID="26" v:groupContext="shape" transform="translate(130.542,-88.9911)">
			<title>Ellipse.26</title>
			<desc>dmusic:Performance</desc>
			<v:userDefs>
				<v:ud v:nameU="visVersion" v:val="VT0(15):26"/>
				<v:ud v:nameU="msvThemeColors" v:val="VT0(36):26"/>
				<v:ud v:nameU="msvThemeEffects" v:val="VT0(16):26"/>
			</v:userDefs>
			<v:textBlock v:margins="rect(4,4,4,4)" v:tabSpace="42.5197"/>
			<v:textRect cx="56.9822" cy="425.869" width="99.72" height="36.9516"/>
			<path d="M0 425.87 A56.9822 21.1152 0 0 1 113.96 425.87 A56.9822 21.1152 0 1 1 0 425.87 Z" class="st1"/>
			<text x="11.71" y="428.87" class="st2" v:langID="2070"><v:paragraph v:horizAlign="1"/><v:tabList/>dmusic:Performance</text>		</g>
		<g id="shape25-25" v:mID="25" v:groupContext="shape" transform="translate(228.019,-145.25)">
			<title>Ellipse.25</title>
			<desc>dmusic:Genre</desc>
			<v:userDefs>
				<v:ud v:nameU="visVersion" v:val="VT0(15):26"/>
				<v:ud v:nameU="msvThemeColors" v:val="VT0(36):26"/>
				<v:ud v:nameU="msvThemeEffects" v:val="VT0(16):26"/>
			</v:userDefs>
			<v:textBlock v:margins="rect(4,4,4,4)" v:tabSpace="42.5197"/>
			<v:textRect cx="50.474" cy="425.869" width="88.33" height="36.9516"/>
			<path d="M0 425.87 A50.474 21.1152 0 0 1 100.95 425.87 A50.474 21.1152 0 1 1 0 425.87 Z" class="st1"/>
			<text x="20.04" y="428.87" class="st2" v:langID="2070"><v:paragraph v:horizAlign="1"/><v:tabList/>dmusic:Genre</text>		</g>
		<g id="shape24-28" v:mID="24" v:groupContext="shape" transform="translate(440.617,-145.25)">
			<title>Ellipse.24</title>
			<desc>dmusic:Song</desc>
			<v:userDefs>
				<v:ud v:nameU="visVersion" v:val="VT0(15):26"/>
				<v:ud v:nameU="msvThemeColors" v:val="VT0(36):26"/>
				<v:ud v:nameU="msvThemeEffects" v:val="VT0(16):26"/>
			</v:userDefs>
			<v:textBlock v:margins="rect(4,4,4,4)" v:tabSpace="42.5197"/>
			<v:textRect cx="50.474" cy="425.869" width="88.33" height="36.9516"/>
			<path d="M0 425.87 A50.474 21.1152 0 0 1 100.95 425.87 A50.474 21.1152 0 1 1 0 425.87 Z" class="st1"/>
			<text x="22.98" y="428.87" class="st2" v:langID="2070"><v:paragraph v:horizAlign="1"/><v:tabList/>dmusic:Song</text>		</g>
		<g id="shape23-31" v:mID="23" v:groupContext="shape" transform="translate(440.617,-234.831)">
			<title>Ellipse.23</title>
			<desc>dmusic:Album</desc>
			<v:userDefs>
				<v:ud v:nameU="visVersion" v:val="VT0(15):26"/>
				<v:ud v:nameU="msvThemeColors" v:val="VT0(36):26"/>
				<v:ud v:nameU="msvThemeEffects" v:val="VT0(16):26"/>
			</v:userDefs>
			<v:textBlock v:margins="rect(4,4,4,4)" v:tabSpace="42.5197"/>
			<v:textRect cx="50.474" cy="425.869" width="88.33" height="36.9516"/>
			<path d="M0 425.87 A50.474 21.1152 0 0 1 100.95 425.87 A50.474 21.1152 0 1 1 0 425.87 Z" class="st1"/>
			<text x="19.39" y="428.87" class="st2" v:langID="2070"><v:paragraph v:horizAlign="1"/><v:tabList/>dmusic:Album</text>		</g>
		<g id="shape22-34" v:mID="22" v:groupContext="shape" transform="translate(580.649,-234.831)">
			<title>Ellipse.22</title>
			<desc>dmusic:RecordLabel</desc>
			<v:userDefs>
				<v:ud v:nameU="visVersion" v:val="VT0(15):26"/>
				<v:ud v:nameU="msvThemeColors" v:val="VT0(36):26"/>
				<v:ud v:nameU="msvThemeEffects" v:val="VT0(16):26"/>
			</v:userDefs>
			<v:textBlock v:margins="rect(4,4,4,4)" v:tabSpace="42.5197"/>
			<v:textRect cx="56.9822" cy="425.869" width="99.72" height="36.9516"/>
			<path d="M0 425.87 A56.9822 21.1152 0 1 1 113.96 425.87 A56.9822 21.1152 0 1 1 0 425.87 Z" class="st1"/>
			<text x="12.69" y="428.87" class="st2" v:langID="2070"><v:paragraph v:horizAlign="1"/><v:tabList/>dmusic:RecordLabel</text>		</g>
		<g id="shape21-37" v:mID="21" v:groupContext="shape" transform="translate(639.043,-145.25)">
			<title>Ellipse.21</title>
			<desc>dmusic:Lyric</desc>
			<v:userDefs>
				<v:ud v:nameU="visVersion" v:val="VT0(15):26"/>
				<v:ud v:nameU="msvThemeColors" v:val="VT0(36):26"/>
				<v:ud v:nameU="msvThemeEffects" v:val="VT0(16):26"/>
			</v:userDefs>
			<v:textBlock v:margins="rect(4,4,4,4)" v:tabSpace="42.5197"/>
			<v:textRect cx="50.474" cy="425.869" width="88.33" height="36.9516"/>
			<path d="M0 425.87 A50.474 21.1152 0 0 1 100.95 425.87 A50.474 21.1152 0 1 1 0 425.87 Z" class="st1"/>
			<text x="22.99" y="428.87" class="st2" v:langID="2070"><v:paragraph v:horizAlign="1"/><v:tabList/>dmusic:Lyric</text>		</g>
		<g id="shape20-40" v:mID="20" v:groupContext="shape" transform="translate(687.527,-273.388)">
			<title>Ellipse.20</title>
			<desc>dmusic:Composer</desc>
			<v:userDefs>
				<v:ud v:nameU="visVersion" v:val="VT0(15):26"/>
				<v:ud v:nameU="msvThemeColors" v:val="VT0(36):26"/>
				<v:ud v:nameU="msvThemeEffects" v:val="VT0(16):26"/>
			</v:userDefs>
			<v:textBlock v:margins="rect(4,4,4,4)" v:tabSpace="42.5197"/>
			<v:textRect cx="49.6063" cy="425.869" width="86.82" height="36.9516"/>
			<path d="M0 425.87 A49.6063 21.1152 0 1 1 99.21 425.87 A49.6063 21.1152 0 1 1 -0 425.87 Z" class="st1"/>
			<text x="10.23" y="428.87" class="st2" v:langID="2070"><v:paragraph v:horizAlign="1"/><v:tabList/>dmusic:Composer</text>		</g>
		<g id="shape19-43" v:mID="19" v:groupContext="shape" transform="translate(31.5896,-159.857)">
			<title>Ellipse.19</title>
			<desc>foaf:Group</desc>
			<v:userDefs>
				<v:ud v:nameU="visVersion" v:val="VT0(15):26"/>
				<v:ud v:nameU="msvThemeColors" v:val="VT0(36):26"/>
				<v:ud v:nameU="msvThemeEffects" v:val="VT0(16):26"/>
			</v:userDefs>
			<v:textBlock v:margins="rect(4,4,4,4)" v:tabSpace="42.5197"/>
			<v:textRect cx="50.474" cy="425.869" width="88.33" height="36.9516"/>
			<path d="M0 425.87 A50.474 21.1152 0 0 1 100.95 425.87 A50.474 21.1152 0 1 1 0 425.87 Z" class="st3"/>
			<text x="26.52" y="428.87" class="st2" v:langID="2070"><v:paragraph v:horizAlign="1"/><v:tabList/>foaf:Group</text>		</g>
		<g id="shape18-46" v:mID="18" v:groupContext="shape" transform="translate(568.176,-337.399)">
			<title>Ellipse</title>
			<desc>foaf:Organization</desc>
			<v:userDefs>
				<v:ud v:nameU="visVersion" v:val="VT0(15):26"/>
				<v:ud v:nameU="msvThemeColors" v:val="VT0(36):26"/>
				<v:ud v:nameU="msvThemeEffects" v:val="VT0(16):26"/>
			</v:userDefs>
			<v:textBlock v:margins="rect(4,4,4,4)" v:tabSpace="42.5197"/>
			<v:textRect cx="50.474" cy="425.869" width="88.33" height="36.9516"/>
			<path d="M0 425.87 A50.474 21.1152 0 0 1 100.95 425.87 A50.474 21.1152 0 1 1 0 425.87 Z" class="st3"/>
			<text x="11.82" y="428.87" class="st2" v:langID="2070"><v:paragraph v:horizAlign="1"/><v:tabList/>foaf:Organization</text>		</g>
		<g id="shape36-49" v:mID="36" v:groupContext="shape" v:layerMember="0" transform="translate(74.977,-277.061)">
			<title>Dynamic connector.36</title>
			<desc>dmusic:hasArtist</desc>
			<v:userDefs>
				<v:ud v:nameU="msvThemeColors" v:val="VT0(36):26"/>
				<v:ud v:nameU="msvThemeEffects" v:val="VT0(16):26"/>
			</v:userDefs>
			<v:textBlock v:margins="rect(4,4,4,4)" v:tabSpace="42.5197"/>
			<v:textRect cx="7.08661" cy="423.309" width="83.55" height="20.0036"/>
			<path d="M7.09 446.98 C7.09 436.95 7.09 418.42 7.09 405.79" class="st4"/>
			<rect v:rectContext="textBkgnd" x="-29.7187" y="417.31" width="73.6109" height="12.0001" class="st6"/>
			<text x="-29.72" y="426.31" class="st2" v:langID="2070"><v:paragraph v:horizAlign="1"/><v:tabList/>dmusic:hasArtist</text>		</g>
		<g id="shape40-59" v:mID="40" v:groupContext="shape" v:layerMember="0" transform="translate(139.046,-248.859)">
			<title>Dynamic connector</title>
			<desc>rdfs:subClassOf</desc>
			<v:userDefs>
				<v:ud v:nameU="msvThemeColors" v:val="VT0(36):26"/>
				<v:ud v:nameU="msvThemeEffects" v:val="VT0(16):26"/>
			</v:userDefs>
			<v:textBlock v:margins="rect(4,4,4,4)" v:tabSpace="42.5197"/>
			<v:textRect cx="44.4866" cy="439.898" width="79.79" height="20.0036"/>
			<path d="M0 439.9 C20.34 439.9 59.29 439.9 82.81 439.9" class="st4"/>
			<rect v:rectContext="textBkgnd" x="9.56129" y="433.898" width="69.8508" height="12.0001" class="st6"/>
			<text x="9.56" y="442.9" class="st2" v:langID="2070"><v:paragraph v:horizAlign="1"/><v:tabList/>rdfs:subClassOf</text>		</g>
		<g id="shape41-67" v:mID="41" v:groupContext="shape" v:layerMember="0" transform="translate(146.002,-345.527)">
			<title>Dynamic connector.41</title>
			<desc>rdfs:subClassOf</desc>
			<v:userDefs>
				<v:ud v:nameU="msvThemeColors" v:val="VT0(36):26"/>
				<v:ud v:nameU="msvThemeEffects" v:val="VT0(16):26"/>
			</v:userDefs>
			<v:textBlock v:margins="rect(4,4,4,4)" v:tabSpace="42.5197"/>
			<v:textRect cx="32.2935" cy="507.167" width="79.79" height="20.0036"/>
			<path d="M0 446.98 C27.06 448.4 8.84 495.74 28.04 505.66 C44.81 514.33 90.11 494.46 97.08 515.06 L97.13 515.42"
					class="st7"/>
			<rect v:rectContext="textBkgnd" x="-2.63178" y="501.167" width="69.8508" height="12.0001" class="st6"/>
			<text x="-2.63" y="510.17" class="st2" v:langID="2070"><v:paragraph v:horizAlign="1"/><v:tabList/>rdfs:subClassOf</text>		</g>
		<g id="shape42-76" v:mID="42" v:groupContext="shape" v:layerMember="0" transform="translate(313.527,-271.147)">
			<title>Dynamic connector.42</title>
			<desc>dmusic:hasAgent</desc>
			<v:userDefs>
				<v:ud v:nameU="msvThemeColors" v:val="VT0(36):26"/>
				<v:ud v:nameU="msvThemeEffects" v:val="VT0(16):26"/>
			</v:userDefs>
			<v:textBlock v:margins="rect(4,4,4,4)" v:tabSpace="42.5197"/>
			<v:textRect cx="116.347" cy="435.566" width="84.8" height="20.0036"/>
			<path d="M0 446.98 C33.84 437.95 57.85 440.16 93.44 437.75 C123.64 435.7 162.19 430.33 182.17 413.83 L182.43 413.59"
					class="st7"/>
			<rect v:rectContext="textBkgnd" x="78.9168" y="429.566" width="74.8603" height="12.0001" class="st6"/>
			<text x="78.92" y="438.57" class="st2" v:langID="2070"><v:paragraph v:horizAlign="1"/><v:tabList/>dmusic:hasAgent</text>		</g>
		<g id="shape43-84" v:mID="43" v:groupContext="shape" v:layerMember="0" transform="translate(74.977,-234.831)">
			<title>Dynamic connector.43</title>
			<desc>rdfs:subClassOf</desc>
			<v:userDefs>
				<v:ud v:nameU="msvThemeColors" v:val="VT0(36):26"/>
				<v:ud v:nameU="msvThemeEffects" v:val="VT0(16):26"/>
			</v:userDefs>
			<v:textBlock v:margins="rect(4,4,4,4)" v:tabSpace="42.5197"/>
			<v:textRect cx="7.37586" cy="459.596" width="79.79" height="20.0036"/>
			<path d="M7.09 446.98 C7.09 453.43 7.09 464.96 7.09 473.57" class="st4"/>
			<rect v:rectContext="textBkgnd" x="-27.5494" y="453.596" width="69.8508" height="12.0001" class="st6"/>
			<text x="-27.55" y="462.6" class="st2" v:langID="2070"><v:paragraph v:horizAlign="1"/><v:tabList/>rdfs:subClassOf</text>		</g>
		<g id="shape44-92" v:mID="44" v:groupContext="shape" v:layerMember="0" transform="translate(328.967,-248.859)">
			<title>Dynamic connector.44</title>
			<desc>dmusic:hasAlbum</desc>
			<v:userDefs>
				<v:ud v:nameU="msvThemeColors" v:val="VT0(36):26"/>
				<v:ud v:nameU="msvThemeEffects" v:val="VT0(16):26"/>
			</v:userDefs>
			<v:textBlock v:margins="rect(4,4,4,4)" v:tabSpace="42.5197"/>
			<v:textRect cx="55.8252" cy="439.898" width="87.08" height="20.0036"/>
			<path d="M0 439.9 C25.99 439.9 76.16 439.9 105.49 439.9" class="st4"/>
			<rect v:rectContext="textBkgnd" x="17.255" y="433.898" width="77.1405" height="12.0001" class="st6"/>
			<text x="17.26" y="442.9" class="st2" v:langID="2070"><v:paragraph v:horizAlign="1"/><v:tabList/>dmusic:hasAlbum</text>		</g>
		<g id="shape45-100" v:mID="45" v:groupContext="shape" v:layerMember="0" transform="translate(637.631,-277.061)">
			<title>Dynamic connector.45</title>
			<desc>rdfs:subClassOf</desc>
			<v:userDefs>
				<v:ud v:nameU="msvThemeColors" v:val="VT0(36):26"/>
				<v:ud v:nameU="msvThemeEffects" v:val="VT0(16):26"/>
			</v:userDefs>
			<v:textBlock v:margins="rect(4,4,4,4)" v:tabSpace="42.5197"/>
			<v:textRect cx="-9.49028" cy="416.816" width="79.79" height="20.0036"/>
			<path d="M0 446.98 L-17.13 392.52" class="st4"/>
			<rect v:rectContext="textBkgnd" x="-44.4156" y="410.816" width="69.8508" height="12.0001" class="st6"/>
			<text x="-44.42" y="419.82" class="st2" v:langID="2070"><v:paragraph v:horizAlign="1"/><v:tabList/>rdfs:subClassOf</text>		</g>
		<g id="shape46-108" v:mID="46" v:groupContext="shape" v:layerMember="0" transform="translate(484.005,-234.831)">
			<title>Dynamic connector.46</title>
			<desc>dmusic:hasSong</desc>
			<v:userDefs>
				<v:ud v:nameU="msvThemeColors" v:val="VT0(36):26"/>
				<v:ud v:nameU="msvThemeEffects" v:val="VT0(16):26"/>
			</v:userDefs>
			<v:textBlock v:margins="rect(4,4,4,4)" v:tabSpace="42.5197"/>
			<v:textRect cx="7.08661" cy="470.659" width="79.89" height="20.0036"/>
			<path d="M7.09 446.98 C7.09 457.02 7.09 475.55 7.09 488.17" class="st4"/>
			<rect v:rectContext="textBkgnd" x="-27.8884" y="464.66" width="69.9502" height="12.0001" class="st6"/>
			<text x="-27.89" y="473.66" class="st2" v:langID="2070"><v:paragraph v:horizAlign="1"/><v:tabList/>dmusic:hasSong</text>		</g>
		<g id="shape47-116" v:mID="47" v:groupContext="shape" v:layerMember="0" transform="translate(271.406,-234.831)">
			<title>Dynamic connector.47</title>
			<desc>dmusic:hasGenre</desc>
			<v:userDefs>
				<v:ud v:nameU="msvThemeColors" v:val="VT0(36):26"/>
				<v:ud v:nameU="msvThemeEffects" v:val="VT0(16):26"/>
			</v:userDefs>
			<v:textBlock v:margins="rect(4,4,4,4)" v:tabSpace="42.5197"/>
			<v:textRect cx="7.08661" cy="470.659" width="85.77" height="20.0036"/>
			<path d="M7.09 446.98 C7.09 457.02 7.09 475.55 7.09 488.17" class="st4"/>
			<rect v:rectContext="textBkgnd" x="-30.8283" y="464.66" width="75.8301" height="12.0001" class="st6"/>
			<text x="-30.83" y="473.66" class="st2" v:langID="2070"><v:paragraph v:horizAlign="1"/><v:tabList/>dmusic:hasGenre</text>		</g>
		<g id="shape48-124" v:mID="48" v:groupContext="shape" v:layerMember="0" transform="translate(440.617,-159.279)">
			<title>Dynamic connector.48</title>
			<desc>dmusic:hasGenre</desc>
			<v:userDefs>
				<v:ud v:nameU="msvThemeColors" v:val="VT0(36):26"/>
				<v:ud v:nameU="msvThemeEffects" v:val="VT0(16):26"/>
			</v:userDefs>
			<v:textBlock v:margins="rect(4,4,4,4)" v:tabSpace="42.5197"/>
			<v:textRect cx="-55.8252" cy="439.898" width="85.77" height="20.0036"/>
			<path d="M0 439.9 C-25.99 439.9 -76.16 439.9 -105.49 439.9" class="st4"/>
			<rect v:rectContext="textBkgnd" x="-93.7401" y="433.898" width="75.8301" height="12.0001" class="st6"/>
			<text x="-93.74" y="442.9" class="st2" v:langID="2070"><v:paragraph v:horizAlign="1"/><v:tabList/>dmusic:hasGenre</text>		</g>
		<g id="shape49-132" v:mID="49" v:groupContext="shape" v:layerMember="0" transform="translate(541.565,-159.279)">
			<title>Dynamic connector.49</title>
			<desc>dmusic:hasLyric</desc>
			<v:userDefs>
				<v:ud v:nameU="msvThemeColors" v:val="VT0(36):26"/>
				<v:ud v:nameU="msvThemeEffects" v:val="VT0(16):26"/>
			</v:userDefs>
			<v:textBlock v:margins="rect(4,4,4,4)" v:tabSpace="42.5197"/>
			<v:textRect cx="48.7386" cy="439.898" width="79.88" height="20.0036"/>
			<path d="M0 439.9 C22.46 439.9 65.61 439.9 91.32 439.9" class="st4"/>
			<rect v:rectContext="textBkgnd" x="13.7685" y="433.898" width="69.9403" height="12.0001" class="st6"/>
			<text x="13.77" y="442.9" class="st2" v:langID="2070"><v:paragraph v:horizAlign="1"/><v:tabList/>dmusic:hasLyric</text>		</g>
		<g id="shape50-140" v:mID="50" v:groupContext="shape" v:layerMember="0" transform="translate(541.565,-255.946)">
			<title>Dynamic connector.50</title>
			<desc>dmusic:hasRecordLabel</desc>
			<v:userDefs>
				<v:ud v:nameU="msvThemeColors" v:val="VT0(36):26"/>
				<v:ud v:nameU="msvThemeEffects" v:val="VT0(16):26"/>
			</v:userDefs>
			<v:textBlock v:margins="rect(4,4,4,4)" v:tabSpace="42.5197"/>
			<v:textRect cx="42.4876" cy="478.513" width="113.49" height="20.0036"/>
			<path d="M0 446.98 C10.63 446.98 10.63 459.85 15.12 467.5 C21.71 478.73 37.98 478.73 57.18 478.73 C71.37 478.73 87.17
						 478.73 93.36 473.63 L93.52 473.31" class="st7"/>
			<rect v:rectContext="textBkgnd" x="-9.28745" y="472.513" width="103.55" height="12.0001" class="st6"/>
			<text x="-9.29" y="481.51" class="st2" v:langID="2070"><v:paragraph v:horizAlign="1"/><v:tabList/>dmusic:hasRecordLabel</text>		</g>
		<g id="shape52-148" v:mID="52" v:groupContext="shape" v:layerMember="0" transform="translate(187.524,-131.222)">
			<title>Dynamic connector.52</title>
			<desc>dmusic:hasArtist</desc>
			<v:userDefs>
				<v:ud v:nameU="msvThemeColors" v:val="VT0(36):26"/>
				<v:ud v:nameU="msvThemeEffects" v:val="VT0(16):26"/>
			</v:userDefs>
			<v:textBlock v:margins="rect(4,4,4,4)" v:tabSpace="42.5197"/>
			<v:textRect cx="7.69693" cy="381.01" width="83.55" height="20.0036"/>
			<path d="M0 446.98 C0 360.91 24.04 348.93 47.6 338.75 L47.93 338.6" class="st7"/>
			<rect v:rectContext="textBkgnd" x="-29.1084" y="375.01" width="73.6109" height="12.0001" class="st6"/>
			<text x="-29.11" y="384.01" class="st2" v:langID="2070"><v:paragraph v:horizAlign="1"/><v:tabList/>dmusic:hasArtist</text>		</g>
		<g id="shape53-156" v:mID="53" v:groupContext="shape" v:layerMember="0" transform="translate(80.0447,-60.3554)">
			<title>Dynamic connector.53</title>
			<desc>dmusic:hasPerformance</desc>
			<v:userDefs>
				<v:ud v:nameU="msvThemeColors" v:val="VT0(36):26"/>
				<v:ud v:nameU="msvThemeEffects" v:val="VT0(16):26"/>
			</v:userDefs>
			<v:textBlock v:margins="rect(4,4,4,4)" v:tabSpace="42.5197"/>
			<v:textRect cx="6.1008" cy="423.613" width="115.45" height="20.0036"/>
			<path d="M0 446.98 C0 434.55 -0 415.93 9.43 406.6 C17.45 398.66 32.31 397.45 44.34 397.27 L44.7 397.26" class="st7"/>
			<rect v:rectContext="textBkgnd" x="-46.6542" y="417.613" width="105.51" height="12.0001" class="st6"/>
			<text x="-46.65" y="426.61" class="st2" v:langID="2070"><v:paragraph v:horizAlign="1"/><v:tabList/>dmusic:hasPerformance</text>		</g>
		<g id="shape54-164" v:mID="54" v:groupContext="shape" v:layerMember="0" transform="translate(130.519,-32.1536)">
			<title>Dynamic connector.54</title>
			<desc>rdfs:subClassOf</desc>
			<v:userDefs>
				<v:ud v:nameU="msvThemeColors" v:val="VT0(36):26"/>
				<v:ud v:nameU="msvThemeEffects" v:val="VT0(16):26"/>
			</v:userDefs>
			<v:textBlock v:margins="rect(4,4,4,4)" v:tabSpace="42.5197"/>
			<v:textRect cx="49.6179" cy="439.898" width="79.79" height="20.0036"/>
			<path d="M0 439.9 C22.9 439.9 66.92 439.9 93.08 439.9" class="st4"/>
			<rect v:rectContext="textBkgnd" x="14.6926" y="433.898" width="69.8508" height="12.0001" class="st6"/>
			<text x="14.69" y="442.9" class="st2" v:langID="2070"><v:paragraph v:horizAlign="1"/><v:tabList/>rdfs:subClassOf</text>		</g>
		<g id="shape55-172" v:mID="55" v:groupContext="shape" v:layerMember="0" transform="translate(689.517,-187.481)">
			<title>Dynamic connector.55</title>
			<desc>dmusic:hasComposer</desc>
			<v:userDefs>
				<v:ud v:nameU="msvThemeColors" v:val="VT0(36):26"/>
				<v:ud v:nameU="msvThemeEffects" v:val="VT0(16):26"/>
			</v:userDefs>
			<v:textBlock v:margins="rect(4,4,4,4)" v:tabSpace="42.5197"/>
			<v:textRect cx="29.2268" cy="421.958" width="103.67" height="20.0036"/>
			<path d="M0 446.98 C0 446.98 44.99 436.94 47.51 367.24 L47.51 366.88" class="st7"/>
			<rect v:rectContext="textBkgnd" x="-17.6383" y="415.959" width="93.7304" height="12.0001" class="st6"/>
			<text x="-17.64" y="424.96" class="st2" v:langID="2070"><v:paragraph v:horizAlign="1"/><v:tabList/>dmusic:hasComposer</text>		</g>
		<g id="shape56-180" v:mID="56" v:groupContext="shape" v:layerMember="0" transform="translate(82.0636,-366.642)">
			<title>Dynamic connector.56</title>
			<desc>rdfs:subClassOf</desc>
			<v:userDefs>
				<v:ud v:nameU="msvThemeColors" v:val="VT0(36):26"/>
				<v:ud v:nameU="msvThemeEffects" v:val="VT0(16):26"/>
			</v:userDefs>
			<v:textBlock v:margins="rect(4,4,4,4)" v:tabSpace="42.5197"/>
			<v:textRect cx="63.4404" cy="408.262" width="79.79" height="20.0036"/>
			<path d="M0 446.98 C-0 436.71 0 423.17 21.36 415.58 C47.18 406.4 104.19 405.91 141.53 405.88 L141.89 405.88"
					class="st7"/>
			<rect v:rectContext="textBkgnd" x="28.5151" y="402.262" width="69.8508" height="12.0001" class="st6"/>
			<text x="28.52" y="411.26" class="st2" v:langID="2070"><v:paragraph v:horizAlign="1"/><v:tabList/>rdfs:subClassOf</text>		</g>
		<g id="shape58-188" v:mID="58" v:groupContext="shape" transform="translate(182.387,-322.82)">
			<title>Rectangle</title>
			<desc>rdfs:Literal</desc>
			<v:userDefs>
				<v:ud v:nameU="visVersion" v:val="VT0(15):26"/>
				<v:ud v:nameU="msvThemeColors" v:val="VT0(36):26"/>
				<v:ud v:nameU="msvThemeEffects" v:val="VT0(16):26"/>
			</v:userDefs>
			<v:textBlock v:margins="rect(4,4,4,4)" v:tabSpace="42.5197"/>
			<v:textRect cx="56.6929" cy="433.014" width="113.39" height="27.9415"/>
			<rect x="0" y="419.043" width="113.386" height="27.9415" class="st3"/>
			<text x="32.6" y="436.01" class="st2" v:langID="2070"><v:paragraph v:horizAlign="1"/><v:tabList/>rdfs:Literal</text>		</g>
		<g id="shape59-191" v:mID="59" v:groupContext="shape" transform="translate(311.936,-322.82)">
			<title>Rectangle.59</title>
			<desc>xsd:string</desc>
			<v:userDefs>
				<v:ud v:nameU="visVersion" v:val="VT0(15):26"/>
				<v:ud v:nameU="msvThemeColors" v:val="VT0(36):26"/>
				<v:ud v:nameU="msvThemeEffects" v:val="VT0(16):26"/>
			</v:userDefs>
			<v:textBlock v:margins="rect(4,4,4,4)" v:tabSpace="42.5197"/>
			<v:textRect cx="56.6929" cy="433.014" width="113.39" height="27.9415"/>
			<rect x="0" y="419.043" width="113.386" height="27.9415" class="st3"/>
			<text x="35.28" y="436.01" class="st2" v:langID="2070"><v:paragraph v:horizAlign="1"/><v:tabList/>xsd:string</text>		</g>
		<g id="shape60-194" v:mID="60" v:groupContext="shape" transform="translate(443.368,-25.2695)">
			<title>Rectangle.60</title>
			<desc>xsd:nonNegativeInteger</desc>
			<v:userDefs>
				<v:ud v:nameU="visVersion" v:val="VT0(15):26"/>
				<v:ud v:nameU="msvThemeColors" v:val="VT0(36):26"/>
				<v:ud v:nameU="msvThemeEffects" v:val="VT0(16):26"/>
			</v:userDefs>
			<v:textBlock v:margins="rect(4,4,4,4)" v:tabSpace="42.5197"/>
			<v:textRect cx="63.7795" cy="433.014" width="127.56" height="27.9415"/>
			<rect x="0" y="419.043" width="127.559" height="27.9415" class="st3"/>
			<text x="10.89" y="436.01" class="st2" v:langID="2070"><v:paragraph v:horizAlign="1"/><v:tabList/>xsd:nonNegativeInteger</text>		</g>
		<g id="shape61-197" v:mID="61" v:groupContext="shape" transform="translate(300.621,-88.9911)">
			<title>Rectangle.61</title>
			<desc>xsd:string</desc>
			<v:userDefs>
				<v:ud v:nameU="visVersion" v:val="VT0(15):26"/>
				<v:ud v:nameU="msvThemeColors" v:val="VT0(36):26"/>
				<v:ud v:nameU="msvThemeEffects" v:val="VT0(16):26"/>
			</v:userDefs>
			<v:textBlock v:margins="rect(4,4,4,4)" v:tabSpace="42.5197"/>
			<v:textRect cx="56.6929" cy="433.014" width="113.39" height="27.9415"/>
			<rect x="0" y="419.043" width="113.386" height="27.9415" class="st3"/>
			<text x="35.28" y="436.01" class="st2" v:langID="2070"><v:paragraph v:horizAlign="1"/><v:tabList/>xsd:string</text>		</g>
		<g id="shape62-200" v:mID="62" v:groupContext="shape" transform="translate(440.617,-88.9911)">
			<title>Rectangle.62</title>
			<desc>xsd:string</desc>
			<v:userDefs>
				<v:ud v:nameU="visVersion" v:val="VT0(15):26"/>
				<v:ud v:nameU="msvThemeColors" v:val="VT0(36):26"/>
				<v:ud v:nameU="msvThemeEffects" v:val="VT0(16):26"/>
			</v:userDefs>
			<v:textBlock v:margins="rect(4,4,4,4)" v:tabSpace="42.5197"/>
			<v:textRect cx="56.6929" cy="433.014" width="113.39" height="27.9415"/>
			<rect x="0" y="419.043" width="113.386" height="27.9415" class="st3"/>
			<text x="35.28" y="436.01" class="st2" v:langID="2070"><v:paragraph v:horizAlign="1"/><v:tabList/>xsd:string</text>		</g>
		<g id="shape64-203" v:mID="64" v:groupContext="shape" v:layerMember="0" transform="translate(456.866,-150.846)">
			<title>Dynamic connector.64</title>
			<desc>dmusic:hasMusicbrainzId</desc>
			<v:userDefs>
				<v:ud v:nameU="msvThemeColors" v:val="VT0(36):26"/>
				<v:ud v:nameU="msvThemeEffects" v:val="VT0(16):26"/>
			</v:userDefs>
			<v:textBlock v:margins="rect(4,4,4,4)" v:tabSpace="42.5197"/>
			<v:textRect cx="-45.6259" cy="470.262" width="120.78" height="20.0036"/>
			<path d="M0 446.98 C0 470.27 -25.15 470.27 -50.3 470.27 C-69.77 470.27 -89.24 470.27 -96.54 475.52 L-96.72 475.84"
					class="st7"/>
			<rect v:rectContext="textBkgnd" x="-101.046" y="464.263" width="110.841" height="12.0001" class="st6"/>
			<text x="-101.05" y="473.26" class="st2" v:langID="2070"><v:paragraph v:horizAlign="1"/><v:tabList/>dmusic:hasMusicbrainzId</text>		</g>
		<g id="shape65-211" v:mID="65" v:groupContext="shape" v:layerMember="0" transform="translate(526.033,-151.128)">
			<title>Dynamic connector.65</title>
			<desc>dmusic:hasName</desc>
			<v:userDefs>
				<v:ud v:nameU="msvThemeColors" v:val="VT0(36):26"/>
				<v:ud v:nameU="msvThemeEffects" v:val="VT0(16):26"/>
			</v:userDefs>
			<v:textBlock v:margins="rect(4,4,4,4)" v:tabSpace="42.5197"/>
			<v:textRect cx="-14.6769" cy="463.827" width="84.44" height="20.0036"/>
			<path d="M0 446.98 C0 461.37 -21.81 463.22 -27.42 475.16 L-27.5 475.51" class="st7"/>
			<rect v:rectContext="textBkgnd" x="-51.9269" y="457.828" width="74.5002" height="12.0001" class="st6"/>
			<text x="-51.93" y="466.83" class="st2" v:langID="2070"><v:paragraph v:horizAlign="1"/><v:tabList/>dmusic:hasName</text>		</g>
		<g id="shape66-219" v:mID="66" v:groupContext="shape" transform="translate(584.085,-25.2695)">
			<title>Rectangle.66</title>
			<desc>xsd:string</desc>
			<v:userDefs>
				<v:ud v:nameU="visVersion" v:val="VT0(15):26"/>
				<v:ud v:nameU="msvThemeColors" v:val="VT0(36):26"/>
				<v:ud v:nameU="msvThemeEffects" v:val="VT0(16):26"/>
			</v:userDefs>
			<v:textBlock v:margins="rect(4,4,4,4)" v:tabSpace="42.5197"/>
			<v:textRect cx="56.6929" cy="433.014" width="113.39" height="27.9415"/>
			<rect x="0" y="419.043" width="113.386" height="27.9415" class="st3"/>
			<text x="35.28" y="436.01" class="st2" v:langID="2070"><v:paragraph v:horizAlign="1"/><v:tabList/>xsd:string</text>		</g>
		<g id="shape67-222" v:mID="67" v:groupContext="shape" transform="translate(710.629,-25.2695)">
			<title>Rectangle.67</title>
			<desc>xsd:anyURI</desc>
			<v:userDefs>
				<v:ud v:nameU="visVersion" v:val="VT0(15):26"/>
				<v:ud v:nameU="msvThemeColors" v:val="VT0(36):26"/>
				<v:ud v:nameU="msvThemeEffects" v:val="VT0(16):26"/>
			</v:userDefs>
			<v:textBlock v:margins="rect(4,4,4,4)" v:tabSpace="42.5197"/>
			<v:textRect cx="56.6929" cy="433.014" width="113.39" height="27.9415"/>
			<rect x="0" y="419.043" width="113.386" height="27.9415" class="st3"/>
			<text x="31.67" y="436.01" class="st2" v:langID="2070"><v:paragraph v:horizAlign="1"/><v:tabList/>xsd:anyURI</text>		</g>
		<g id="shape68-225" v:mID="68" v:groupContext="shape" v:layerMember="0" transform="translate(655.012,-150.954)">
			<title>Dynamic connector.68</title>
			<desc>dmusic:hasChartLyricsId</desc>
			<v:userDefs>
				<v:ud v:nameU="msvThemeColors" v:val="VT0(36):26"/>
				<v:ud v:nameU="msvThemeEffects" v:val="VT0(16):26"/>
			</v:userDefs>
			<v:textBlock v:margins="rect(4,4,4,4)" v:tabSpace="42.5197"/>
			<v:textRect cx="-73.785" cy="521.848" width="118.12" height="20.0036"/>
			<path d="M0 446.98 C-31.27 502.01 -63.64 522.9 -98.26 533.99 C-115.25 539.44 -132.79 542.52 -141.76 543.88 L-142.12 543.93"
					class="st7"/>
			<rect v:rectContext="textBkgnd" x="-127.875" y="515.848" width="108.181" height="12.0001" class="st6"/>
			<text x="-127.88" y="524.85" class="st2" v:langID="2070"><v:paragraph v:horizAlign="1"/><v:tabList/>dmusic:hasChartLyricsId</text>		</g>
		<g id="shape69-233" v:mID="69" v:groupContext="shape" v:layerMember="0" transform="translate(689.517,-145.25)">
			<title>Dynamic connector.69</title>
			<desc>dmusic:hasChecksum</desc>
			<v:userDefs>
				<v:ud v:nameU="msvThemeColors" v:val="VT0(36):26"/>
				<v:ud v:nameU="msvThemeEffects" v:val="VT0(16):26"/>
			</v:userDefs>
			<v:textBlock v:margins="rect(4,4,4,4)" v:tabSpace="42.5197"/>
			<v:textRect cx="-18.9792" cy="495.446" width="104.03" height="20.0036"/>
			<path d="M0 446.98 C4.67 479.2 -37.82 510.48 -47.1 533.09 L-47.19 533.43" class="st7"/>
			<rect v:rectContext="textBkgnd" x="-66.0242" y="489.446" width="94.0902" height="12.0001" class="st6"/>
			<text x="-66.02" y="498.45" class="st2" v:langID="2070"><v:paragraph v:horizAlign="1"/><v:tabList/>dmusic:hasChecksum</text>		</g>
		<g id="shape70-241" v:mID="70" v:groupContext="shape" v:layerMember="0" transform="translate(739.991,-166.365)">
			<title>Dynamic connector.70</title>
			<desc>dmusic:hasUrl</desc>
			<v:userDefs>
				<v:ud v:nameU="msvThemeColors" v:val="VT0(36):26"/>
				<v:ud v:nameU="msvThemeEffects" v:val="VT0(16):26"/>
			</v:userDefs>
			<v:textBlock v:margins="rect(4,4,4,4)" v:tabSpace="42.5197"/>
			<v:textRect cx="25.8418" cy="496.94" width="72.25" height="20.0036"/>
			<path d="M0 446.98 C6.83 446.98 15.78 446.98 20.83 463.17 C26.88 482.6 27.3 525.34 27.33 553.98 L27.33 554.34"
					class="st7"/>
			<rect v:rectContext="textBkgnd" x="-5.31338" y="490.94" width="62.3106" height="12.0001" class="st6"/>
			<text x="-5.31" y="499.94" class="st2" v:langID="2070"><v:paragraph v:horizAlign="1"/><v:tabList/>dmusic:hasUrl</text>		</g>
		<g id="shape71-249" v:mID="71" v:groupContext="shape" v:layerMember="0" transform="translate(500.168,-350.762)">
			<title>Dynamic connector.71</title>
			<desc>rdfs:subClassOf</desc>
			<v:userDefs>
				<v:ud v:nameU="msvThemeColors" v:val="VT0(36):26"/>
				<v:ud v:nameU="msvThemeEffects" v:val="VT0(16):26"/>
			</v:userDefs>
			<v:textBlock v:margins="rect(4,4,4,4)" v:tabSpace="42.5197"/>
			<v:textRect cx="-111.027" cy="421.397" width="79.79" height="20.0036"/>
			<path d="M0 446.98 C-9.08 421.75 -63.32 416.15 -115.83 421.89 C-163.54 427.11 -209.83 441.68 -218.63 417.14 L-218.7 416.78"
					class="st7"/>
			<rect v:rectContext="textBkgnd" x="-145.952" y="415.397" width="69.8508" height="12.0001" class="st6"/>
			<text x="-145.95" y="424.4" class="st2" v:langID="2070"><v:paragraph v:horizAlign="1"/><v:tabList/>rdfs:subClassOf</text>		</g>
		<g id="shape74-257" v:mID="74" v:groupContext="shape" v:layerMember="0" transform="translate(266.48,-276.454)">
			<title>Dynamic connector.74</title>
			<desc>foaf:name</desc>
			<v:userDefs>
				<v:ud v:nameU="msvThemeColors" v:val="VT0(36):26"/>
				<v:ud v:nameU="msvThemeEffects" v:val="VT0(16):26"/>
			</v:userDefs>
			<v:textBlock v:margins="rect(4,4,4,4)" v:tabSpace="42.5197"/>
			<v:textRect cx="-19.2472" cy="427.133" width="53.91" height="20.0036"/>
			<path d="M0 446.98 C0 436.45 -24.1 435.79 -27.1 406.77 L-27.11 406.41" class="st7"/>
			<rect v:rectContext="textBkgnd" x="-41.232" y="421.134" width="43.9698" height="12.0001" class="st8"/>
			<text x="-41.23" y="430.13" class="st2" v:langID="2070"><v:paragraph v:horizAlign="1"/><v:tabList/>foaf:name</text>		</g>
		<g id="shape75-265" v:mID="75" v:groupContext="shape" v:layerMember="0" transform="translate(289.516,-276.551)">
			<title>Dynamic connector.75</title>
			<desc>dmusic:hasMusicbrainzId</desc>
			<v:userDefs>
				<v:ud v:nameU="msvThemeColors" v:val="VT0(36):26"/>
				<v:ud v:nameU="msvThemeEffects" v:val="VT0(16):26"/>
			</v:userDefs>
			<v:textBlock v:margins="rect(4,4,4,4)" v:tabSpace="42.5197"/>
			<v:textRect cx="54.3069" cy="424.881" width="120.78" height="20.0036"/>
			<path d="M0 446.98 C-0 435.84 19.13 437.46 38.27 435.95 C57.12 434.47 75.98 429.95 78.76 406.87 L78.78 406.51"
					class="st7"/>
			<rect v:rectContext="textBkgnd" x="-1.11342" y="418.881" width="110.841" height="12.0001" class="st8"/>
			<text x="-1.11" y="427.88" class="st2" v:langID="2070"><v:paragraph v:horizAlign="1"/><v:tabList/>dmusic:hasMusicbrainzId</text>		</g>
		<g id="shape76-273" v:mID="76" v:groupContext="shape" v:layerMember="0" transform="translate(737.133,-315.618)">
			<title>Dynamic connector.76</title>
			<desc>rdfs:subClassOf</desc>
			<v:userDefs>
				<v:ud v:nameU="msvThemeColors" v:val="VT0(36):26"/>
				<v:ud v:nameU="msvThemeEffects" v:val="VT0(16):26"/>
			</v:userDefs>
			<v:textBlock v:margins="rect(4,4,4,4)" v:tabSpace="42.5197"/>
			<v:textRect cx="-178.682" cy="357.42" width="79.79" height="20.0036"/>
			<path d="M0 446.98 C-0 423.95 4.98 391.05 -52.28 373.71 C-124.92 351.69 -297.76 354.72 -400.27 354.85 L-400.63 354.85"
					class="st9"/>
			<rect v:rectContext="textBkgnd" x="-213.607" y="351.42" width="69.8508" height="12.0001" class="st8"/>
			<text x="-213.61" y="360.42" class="st2" v:langID="2070"><v:paragraph v:horizAlign="1"/><v:tabList/>rdfs:subClassOf</text>		</g>
	</g>
</svg>
